<?xml version="1.0" standalone="no"?>
<!DOCTYPE svg PUBLIC "-//W3C//DTD SVG 20010904//EN"
 "http://www.w3.org/TR/2001/REC-SVG-20010904/DTD/svg10.dtd">
<svg version="1.0" xmlns="http://www.w3.org/2000/svg"
 width="545.000000pt" height="458.000000pt" viewBox="0 0 545.000000 458.000000"
 preserveAspectRatio="xMidYMid meet">

<g transform="translate(0.000000,458.000000) scale(0.100000,-0.100000)"
fill="#000000" stroke="none">
<path d="M1665 4226 c-63 -29 -128 -96 -162 -163 -21 -44 -25 -63 -21 -113 5
-70 28 -102 96 -132 23 -10 42 -24 42 -31 0 -7 -27 -44 -59 -84 -99 -122 -117
-159 -170 -366 -49 -189 -105 -280 -285 -465 -225 -231 -237 -345 -80 -765 62
-166 108 -251 180 -327 57 -61 61 -68 67 -125 8 -78 91 -401 109 -422 11 -14
34 -15 188 -10 96 4 236 16 310 27 168 25 161 25 155 -3 -3 -12 -9 -87 -15
-167 -6 -80 -13 -170 -16 -200 l-6 -55 199 -33 c109 -18 257 -43 328 -57 224
-43 298 -56 302 -51 14 13 -60 40 -154 56 -59 10 -117 22 -128 26 -57 21 -74
72 -30 92 57 26 118 9 229 -62 31 -20 56 -34 56 -31 0 21 -192 312 -245 370
-20 22 -52 59 -72 82 -35 42 -36 43 -99 43 -69 0 -104 20 -104 60 0 20 14 25
53 22 17 -2 17 0 -2 24 -24 31 -27 52 -7 60 27 10 55 -16 120 -114 36 -53 88
-122 115 -152 l50 -55 -14 55 c-8 30 -15 66 -15 80 0 18 -14 37 -45 63 -37 32
-45 44 -45 72 0 34 20 49 35 25 4 -6 12 -4 22 6 15 14 18 14 35 -4 17 -16 20
-37 23 -124 3 -98 6 -109 44 -189 22 -46 54 -106 71 -134 17 -27 49 -87 73
-133 23 -45 44 -82 48 -82 3 0 19 19 35 43 16 23 46 65 66 93 21 28 38 53 38
57 0 3 29 67 65 142 36 76 65 138 65 140 0 1 27 59 60 128 l59 125 -37 174
c-35 165 -38 173 -61 173 -19 0 -27 -10 -45 -60 -31 -84 -99 -218 -114 -223
-22 -7 -12 23 42 131 30 58 57 124 61 147 8 48 -7 74 -101 175 -66 71 -86 107
-82 143 3 24 7 27 36 26 18 -1 44 -9 57 -18 28 -18 79 -113 103 -190 l15 -51
7 32 c11 47 -12 141 -73 304 -35 92 -45 110 -82 141 -44 37 -155 226 -155 264
0 9 9 18 20 21 13 3 20 14 20 29 0 22 4 24 55 24 30 0 55 2 55 5 0 13 -61 125
-68 125 -4 0 -20 -28 -37 -62 -44 -90 -108 -152 -173 -169 -50 -12 -52 -14
-47 -43 2 -17 7 -79 11 -138 l6 -107 -30 -15 c-79 -41 -216 -29 -408 35 l-121
40 -7 46 c-3 25 -6 95 -6 155 0 101 -1 110 -17 103 -10 -4 -50 -10 -89 -12
-55 -4 -79 -1 -108 12 -85 41 -194 171 -211 252 -6 28 -2 38 23 62 53 54 85
51 229 -17 70 -34 130 -59 132 -56 2 2 -17 25 -42 51 -26 26 -59 70 -74 99
l-27 52 43 65 c23 36 55 98 70 136 15 39 36 80 47 92 32 36 113 69 172 69 56
0 68 14 25 31 -45 17 -121 -8 -177 -60 -25 -23 -28 -23 -23 -6 26 90 40 178
44 280 l6 120 63 38 c34 20 73 37 87 37 33 0 215 -90 313 -156 45 -30 113 -83
150 -119 l69 -64 -46 -1 c-32 0 -55 -6 -70 -20 l-24 -20 85 6 85 6 23 -34 c12
-19 22 -42 22 -52 0 -16 -6 -17 -49 -11 -67 9 -136 -20 -155 -66 -27 -63 17
-133 78 -127 24 2 35 11 49 40 16 33 16 40 3 71 -8 19 -22 40 -33 46 -17 10
-16 10 5 11 13 0 44 -5 69 -11 40 -11 47 -17 64 -56 56 -132 75 -311 43 -423
l-15 -56 68 -98 c37 -54 74 -106 81 -115 6 -10 37 -80 68 -157 31 -76 60 -143
64 -148 5 -4 15 5 23 21 20 37 43 57 57 48 8 -5 3 -16 -13 -34 -49 -52 -49
-61 -5 -121 64 -89 221 -328 274 -419 44 -75 53 -85 82 -88 22 -3 32 0 32 10
0 24 -108 309 -149 393 -25 51 -62 106 -99 145 -47 51 -58 68 -51 84 4 11 8
49 8 85 1 85 -22 133 -128 273 -92 120 -112 157 -170 307 -22 58 -63 164 -91
235 -72 182 -80 209 -81 289 -1 205 -106 367 -301 464 -186 92 -429 92 -640
-1 l-36 -16 -12 48 c-15 63 -42 107 -82 131 -43 26 -82 25 -143 -4z m238
-1832 c3 -3 -3 -30 -13 -59 -10 -30 -22 -76 -25 -102 -3 -26 -9 -61 -12 -78
-5 -27 0 -24 42 30 26 33 51 62 56 63 5 2 9 30 9 62 0 40 5 64 16 74 18 18 17
18 37 10 9 -3 13 -13 10 -24 -4 -15 -1 -18 16 -13 18 5 21 1 21 -25 0 -26 -11
-40 -72 -89 -56 -46 -80 -74 -114 -136 -23 -42 -45 -87 -49 -100 -3 -12 -10
-31 -15 -42 -7 -18 -84 -210 -97 -242 -4 -10 17 -11 89 -6 101 6 188 -7 209
-33 18 -21 14 -66 -7 -82 -27 -20 -86 -9 -188 33 -102 42 -120 43 -143 8 -35
-55 -150 -202 -168 -215 -15 -12 -25 -9 -25 5 0 7 16 31 36 53 49 52 106 130
134 181 l23 42 -36 76 c-20 42 -45 89 -56 103 -43 60 -52 162 -15 162 25 0 70
-30 86 -59 17 -29 34 -98 44 -180 8 -68 11 -62 68 111 44 133 63 208 89 346
13 68 12 75 -4 96 -10 13 -15 26 -12 30 8 8 58 8 66 0z m1512 -159 c0 -13 -8
-21 -22 -23 -19 -3 -23 1 -23 23 0 22 4 26 23 23 14 -2 22 -10 22 -23z m-1907
-19 c4 -21 -14 -37 -35 -29 -14 5 -18 35 -6 47 12 12 38 1 41 -18z m1052 -361
c0 -18 -5 -25 -19 -25 -11 0 -23 5 -26 10 -11 18 3 40 25 40 15 0 20 -7 20
-25z m475 -600 c0 -22 -31 -33 -47 -17 -17 17 -1 44 24 40 15 -2 23 -10 23
-23z m-750 -280 c0 -22 -31 -33 -47 -17 -17 17 -1 44 24 40 15 -2 23 -10 23
-23z"/>
<path d="M1988 2364 c-5 -4 -8 -19 -8 -33 1 -23 2 -24 11 -8 11 19 9 53 -3 41z"/>
<path d="M2030 2318 c-12 -22 -12 -22 6 -6 10 10 15 20 12 24 -4 3 -12 -5 -18
-18z"/>
<path d="M1560 2008 c0 -13 7 -36 16 -53 9 -16 34 -64 55 -105 41 -80 48 -72
23 25 -9 33 -18 70 -21 82 -6 26 -47 73 -63 73 -5 0 -10 -10 -10 -22z"/>
<path d="M1836 1657 c67 -34 159 -44 159 -17 0 24 -44 38 -134 42 l-84 5 59
-30z"/>
<path d="M2129 3317 c-30 -18 -69 -39 -86 -46 -18 -7 -30 -18 -27 -23 10 -15
71 -2 102 22 l27 22 6 -47 c6 -55 27 -75 75 -75 23 0 38 7 48 22 19 27 21 89
4 107 -13 14 -10 14 42 -7 13 -5 13 -3 2 10 -14 17 -93 48 -122 48 -9 0 -41
-15 -71 -33z"/>
<path d="M2543 3253 c4 -21 20 -57 37 -81 16 -23 30 -49 30 -57 0 -8 5 -15 10
-15 20 0 10 53 -15 76 -13 12 -30 43 -36 68 -14 56 -34 62 -26 9z"/>
<path d="M2636 2968 c-12 -6 -43 -8 -83 -5 -73 7 -78 -8 -7 -19 47 -7 118 8
129 26 8 13 -15 12 -39 -2z"/>
<path d="M2910 2124 c0 -8 10 -30 23 -48 35 -51 127 -151 127 -138 0 24 -61
141 -89 171 -31 33 -61 41 -61 15z"/>
<path d="M3120 1886 c0 -14 5 -26 10 -26 6 0 10 9 10 19 0 11 -4 23 -10 26 -6
4 -10 -5 -10 -19z"/>
<path d="M2566 1375 c4 -8 8 -15 10 -15 2 0 4 7 4 15 0 8 -4 15 -10 15 -5 0
-7 -7 -4 -15z"/>
<path d="M2510 1367 c0 -9 9 -21 20 -27 11 -6 20 -9 20 -7 0 2 -9 14 -20 27
-16 18 -20 19 -20 7z"/>
<path d="M2375 1350 c10 -11 20 -20 23 -20 3 0 -3 9 -13 20 -10 11 -20 20 -23
20 -3 0 3 -9 13 -20z"/>
<path d="M2312 1308 c3 -7 22 -14 44 -16 39 -2 39 -2 14 13 -31 18 -63 19 -58
3z"/>
<path d="M2510 825 c0 -21 25 -31 123 -49 48 -9 95 -19 105 -22 42 -14 -38 38
-96 61 -71 28 -132 33 -132 10z"/>
<path d="M1682 728 c-7 -7 -11 -30 -10 -52 1 -41 1 -41 5 -6 6 44 17 58 51 63
26 4 26 4 -3 6 -17 0 -36 -4 -43 -11z"/>
<path d="M1687 570 c14 -130 14 -130 -37 -147 -62 -21 -66 -26 -40 -67 23 -38
37 -38 73 1 25 28 31 124 13 208 l-15 70 6 -65z"/>
</g>
</svg>
